<svg version="1.0" xmlns="http://www.w3.org/2000/svg" xmlns:xlink="http://www.w3.org/1999/xlink"
     width="120" height="120"  preserveAspectRatio="xMidYMid meet"
     color-interpolation-filters="sRGB" class="el-tooltip" style="margin: auto;">
    <!--<rect x="0" y="0" width="100%" height="100%" fill="#d05050" fill-opacity="1"></rect>-->
    <!--<rect x="0" y="0" width="100%" height="100%" fill="#d05050" fill-opacity="1"-->
          <!--class="watermarklayer"></rect>-->
    <g fill="#6b4226" class="bordersvg" transform="translate(-8,20)" >
        <path fill-opacity="0" stroke="#6b4226" stroke-width="3"
              d="M 54.599998474121094 13.518070220947266 A 37.29999923706055 37.29999923706055 0 1 1 54.599998474121094 61.08192825317383"></path>
        <g transform="translate(0,13.518070220947266)">
            <rect stroke-width="2" x="0" y="0" width="109.19999694824219" height="47.56385803222656"
                  fill-opacity="0"></rect> <!----> <!---->
            <g transform="translate(10,3)">
                <g class="tp-name" transform="translate(6.176265716552734,0)">
                    <g>
                        <path transform="translate(-1.375,25.364570617676)"
                              d="M16.56-15.94L16.56-15.94L16.56-15.94Q11.88-15.63 10-14.38L10-14.38L10-14.38Q8.75-13.75 7.50-15L7.50-15L7.50-15Q6.25-16.56 7.19-17.50L7.19-17.50L7.19-17.50Q8.13-18.44 8.44-22.19L8.44-22.19L8.44-22.19Q8.75-23.75 10.94-22.81L10.94-22.81L10.94-22.81Q12.50-21.56 11.56-20.31L11.56-20.31L11.56-20.31Q10.63-17.50 11.88-17.81L11.88-17.81L16.56-18.13L16.56-18.13Q16.88-21.25 16.25-24.06L16.25-24.06L16.25-24.06Q15.94-25.63 18.44-25.31L18.44-25.31L18.44-25.31Q20.31-25 20.31-22.81L20.31-22.81L20.31-22.81Q20-19.69 20-18.13L20-18.13L27.81-18.44L27.81-18.44Q31.56-18.13 31.56-17.19L31.56-17.19L31.56-17.19Q32.19-15.94 28.75-16.25L28.75-16.25L28.75-16.25Q23.75-16.25 19.69-15.94L19.69-15.94L19.38-14.69L19.38-14.69Q22.19-14.38 25.31-15L25.31-15L25.31-15Q27.81-15 26.88-12.50L26.88-12.50L26.88-12.50Q26.56-10.63 25-8.75L25-8.75L25-8.75Q32.81-5 39.06-5L39.06-5L39.06-5Q35.94 0.94 31.88-0.94L31.88-0.94L31.88-0.94Q27.50-4.38 23.44-6.56L23.44-6.56L23.44-6.56Q18.75-0.94 12.19-2.81L12.19-2.81L12.19-2.81Q10-4.06 11.56-4.69L11.56-4.69L11.56-4.69Q18.13-4.69 20.94-8.13L20.94-8.13L20.94-8.13Q18.75-10 17.50-10.31L17.50-10.31L17.50-10.31Q10-2.50 1.88-5.94L1.88-5.94L1.88-5.94Q0.63-8.13 2.50-7.81L2.50-7.81L2.50-7.81Q13.75-6.88 16.56-15.94ZM22.50-10L22.50-10L23.44-11.25L23.44-11.25Q24.06-12.81 22.19-12.81L22.19-12.81L22.19-12.81Q20.63-13.13 19.06-12.50L19.06-12.50L19.06-12.50Q20.94-10.63 22.50-10ZM26.25-24.38L26.25-24.38L26.25-24.38Q28.75-23.13 27.19-21.25L27.19-21.25L27.19-21.25Q23.44-19.38 22.81-20L22.81-20L22.81-20Q22.19-20.63 24.38-24.06L24.38-24.06L24.38-24.06Q25-24.69 26.25-24.38ZM62.81-16.56L62.81-16.56L62.81-16.56Q63.13-17.50 62.81-18.44L62.81-18.44L62.81-18.44Q61.25-18.75 59.38-18.44L59.38-18.44L59.38-18.44Q58.75-17.50 59.38-16.56L59.38-16.56L59.38-16.56Q61.25-16.25 62.81-16.56ZM65-8.75L65-8.75L65-8.75Q65.94-9.38 65.63-10.94L65.63-10.94L56.88-10.94L56.88-10.94Q55.94-9.38 56.25-6.25L56.25-6.25L56.25-6.25Q56.25-3.44 58.44-4.38L58.44-4.38L58.44-4.38Q60.63-4.69 63.13-7.50L63.13-7.50L60.94-8.75L60.94-8.75Q59.69-9.06 59.69-9.69L59.69-9.69L59.69-9.69Q59.69-10.63 60.94-10.63L60.94-10.63L60.94-10.63Q61.25-10.63 65-8.75ZM66.25-13.13L67.81-13.13L67.81-13.13Q71.88-13.13 75-12.50L75-12.50L75-12.50Q75.94-11.25 74.06-10.94L74.06-10.94L68.13-10.94L68.13-10.94Q69.69-9.69 66.25-8.13L66.25-8.13L66.25-8.13Q72.19-5.31 77.81-5L77.81-5L77.81-5Q79.06-4.69 76.56-2.19L76.56-2.19L76.56-2.19Q72.81 1.56 70-1.56L70-1.56L70-1.56Q67.19-4.69 64.06-6.56L64.06-6.56L64.06-6.56Q62.81-4.06 60.94-2.50L60.94-2.50L60.94-2.50Q56.88 0.31 53.44-0.63L53.44-0.63L53.44-0.63Q51.88-1.56 52.81-3.44L52.81-3.44L52.81-3.44Q53.75-6.56 53.44-10.63L53.44-10.63L53.44-10.63Q50.63-10.31 50.31-11.25L50.31-11.25L50.31-11.25Q49.38-7.81 46.88-5L46.88-5L46.88-5Q44.69-3.13 42.81-3.75L42.81-3.75L42.81-3.75Q40-5.31 40.94-6.56L40.94-6.56L40.94-6.56Q47.50-7.50 48.44-15.63L48.44-15.63L48.44-15.63Q48.44-19.38 47.81-21.88L47.81-21.88L47.81-21.88Q47.19-25.63 52.19-23.75L52.19-23.75L52.19-23.75Q60.94-23.44 67.19-24.06L67.19-24.06L67.19-24.06Q71.56-25.63 71.56-22.50L71.56-22.50L71.56-22.50Q70.94-21.25 71.25-19.06L71.25-19.06L71.25-19.06Q71.25-17.50 69.38-17.81L69.38-17.81L69.38-17.81Q67.19-18.75 66.25-18.44L66.25-18.44L66.25-18.44Q65.63-17.81 66.25-16.88L66.25-16.88L66.25-16.88Q69.69-16.88 70.94-16.25L70.94-16.25L70.94-16.25Q71.25-14.69 70-14.69L70-14.69L66.25-14.69L66.25-14.69Q65.31-13.75 66.25-13.13L66.25-13.13ZM51.25-16.88L51.25-16.88L50.63-12.81L50.63-12.81Q52.81-13.13 55.94-13.13L55.94-13.13L55.94-14.38L53.13-14.38L53.13-14.38Q51.56-15.31 53.44-16.25L53.44-16.25L53.44-16.25Q55-16.88 55.94-16.56L55.94-16.56L55.94-18.44L52.81-18.44L52.81-18.44Q51.25-18.44 51.25-16.88ZM51.88-20L51.88-20L51.88-20Q55.94-19.69 60.31-20L60.31-20L60.31-20Q66.25-19.69 67.50-20.63L67.50-20.63L67.50-20.63Q67.81-21.88 66.56-22.19L66.56-22.19L66.56-22.19Q58.44-22.19 51.56-21.56L51.56-21.56L51.56-21.56Q51.25-20.31 51.88-20ZM59.38-14.38L59.38-14.38L59.38-14.38Q58.75-13.75 59.38-13.13L59.38-13.13L59.38-13.13Q60.63-12.81 62.81-13.13L62.81-13.13L62.81-13.13Q63.44-13.75 62.81-14.38L62.81-14.38L62.81-14.38Q61.25-14.69 59.38-14.38Z"></path>
                    </g> <!----> <!----> <!----> <!----> <!----> <!----> <!---->
                </g>
                <g class="tp-slogan" transform="translate(0,32.61174774169922)"><!----> <!----> <!---->
                    <g>
                        <path transform="translate(-0.9375,8.8125)"
                              d="M4.41 0L0.94 0L0.94-8.58L4.45-8.58L4.45-8.58Q7.92-8.39 8.06-4.41L8.06-4.41L8.06-4.41Q7.88-0.09 4.41 0L4.41 0ZM4.27-7.64L2.11-7.64L2.11-0.98L4.36-0.98L4.36-0.98Q6.80-1.13 6.89-4.31L6.89-4.31L6.89-4.31Q6.84-7.55 4.27-7.64L4.27-7.64ZM10.83-1.03L15.98-1.03L15.98 0L9.66 0L9.66-8.58L15.89-8.58L15.89-7.59L10.83-7.59L10.83-4.92L15.52-4.92L15.52-3.89L10.83-3.89L10.83-1.03ZM18.14-8.58L20.58-1.27L23.06-8.58L24.38-8.58L21.23 0L19.97 0L16.83-8.58L18.14-8.58ZM26.77-1.03L31.92-1.03L31.92 0L25.59 0L25.59-8.58L31.83-8.58L31.83-7.59L26.77-7.59L26.77-4.92L31.45-4.92L31.45-3.89L26.77-3.89L26.77-1.03ZM33.42-8.58L34.59-8.58L34.59-1.03L38.95-1.03L38.95 0L33.42 0L33.42-8.58ZM46.88-4.27L46.88-4.27L46.88-4.27Q46.69-7.64 43.88-7.83L43.88-7.83L43.88-7.83Q41.02-7.69 40.88-4.27L40.88-4.27L40.88-4.27Q41.02-0.94 43.88-0.80L43.88-0.80L43.88-0.80Q46.69-0.98 46.88-4.27ZM48.05-4.27L48.05-4.27L48.05-4.27Q47.77 0 43.88 0.14L43.88 0.14L43.88 0.14Q39.94 0 39.66-4.27L39.66-4.27L39.66-4.27Q39.89-8.72 43.88-8.81L43.88-8.81L43.88-8.81Q47.77-8.67 48.05-4.27ZM53.06-7.64L50.72-7.64L50.72-4.64L53.02-4.64L53.02-4.64Q54.80-4.64 54.80-6.19L54.80-6.19L54.80-6.19Q54.80-7.59 53.06-7.64L53.06-7.64ZM53.44-3.61L50.72-3.61L50.72 0L49.55 0L49.55-8.58L53.44-8.58L53.44-8.58Q55.88-8.48 55.97-6.19L55.97-6.19L55.97-6.19Q55.83-3.70 53.44-3.61L53.44-3.61ZM65.63-8.58L65.63 0L64.50 0L64.50-5.06L64.50-5.06Q64.50-5.77 64.50-7.22L64.50-7.22L62.06 0L60.89 0L58.50-7.22L58.45-7.22L58.45-7.22Q58.45-6.70 58.50-5.67L58.50-5.67L58.50-5.67Q58.50-5.16 58.50-5.06L58.50-5.06L58.50 0L57.33 0L57.33-8.58L59.02-8.58L61.50-1.31L63.94-8.58L65.63-8.58ZM68.63-1.03L73.78-1.03L73.78 0L67.45 0L67.45-8.58L73.69-8.58L73.69-7.59L68.63-7.59L68.63-4.92L73.31-4.92L73.31-3.89L68.63-3.89L68.63-1.03ZM76.69-8.58L81-1.64L81-8.58L82.13-8.58L82.13 0L80.81 0L76.45-6.94L76.41-6.94L76.41 0L75.28 0L75.28-8.58L76.69-8.58ZM86.11-7.59L83.20-7.59L83.20-8.58L90.14-8.58L90.14-7.59L87.23-7.59L87.23 0L86.11 0L86.11-7.59Z"></path>
                    </g>
                </g>
            </g>
        </g>
    </g>
</svg>