<svg version="1.0" xmlns="http://www.w3.org/2000/svg" xmlns:xlink="http://www.w3.org/1999/xlink"
     width="120" height="120" preserveAspectRatio="xMidYMid meet"
     color-interpolation-filters="sRGB" class="el-tooltip" style="margin: auto;text-align: center;">
    <!--<rect  x="0" y="0" width="100%" height="100%" fill="url(#97)" fill-opacity="1"></rect>-->
    <!--<rect  x="0" y="0" width="100%" height="100%" fill="url(#watermark)" fill-opacity="1"-->
    <!--class="watermarklayer"></rect>-->
    <g fill="#6b4226" class="bordersvg" transform="translate(20,10)">
        <polyline stroke="#6b4226" stroke-width="3" fill-opacity="0"
                  points="0,20 0,10 74.83812713623047,10 74.83812713623047,20"></polyline>
        <polyline stroke="#6b4226" stroke-width="3" fill-opacity="0"
                  points="0,74.83812713623047 0,84.83812713623047 74.83812713623047,84.83812713623047 74.83812713623047,74.83812713623047"></polyline>
        <polyline stroke="#6b4226" stroke-width="3" fill-opacity="0"
                  points="10,15 10,0 64.83812713623047,0 64.83812713623047,15"></polyline>
        <polyline stroke="#6b4226" stroke-width="3" fill-opacity="0"
                  points="10,77.33812713623047 10,94.83812713623047 64.83812713623047,94.83812713623047 64.83812713623047,77.33812713623047"></polyline>
        <g transform="translate(8.979063034057617,20)">
            <rect stroke-width="2" x="0" y="0" width="56.880001068115234" height="54.83812713623047"
                  fill-opacity="0"></rect> <!----> <!---->
            <g transform="translate(0,3)">
                <g class="tp-name" transform="translate(0,0)">
                    <g>
                        <path transform="translate(-2.16,33.12)"
                              d="M16.40-11.04L25.52-0.16L27.68-1.96L16.40-15.36L16.40-15.64L27.16-15.64L27.16-18.44L16.40-18.44L16.40-24.40L24.92-24.40L24.92-27.20L16.40-27.20L16.40-33.12L13.60-33.12L13.60-27.20L4.88-27.20L4.88-24.40L13.60-24.40L13.60-18.44L2.76-18.44L2.76-15.64L13.60-15.64L13.60-15.32L2.16-1.68L4.32 0.12L13.60-11L13.60 2.32L16.40 2.32ZM46.40-10.96L55.48 0.48L57.68-1.28L49-12.20L59.04-12.20L59.04-15L46.40-15L46.40-25.28L57.48-25.28L57.48-28.08L46.40-28.08L46.40-33.12L43.60-33.12L43.60-28.08L32.44-28.08L32.44-25.28L43.60-25.28L43.60-15L30.92-15L30.92-12.20L40.84-12.20L32.12-1.32L34.32 0.44L43.60-11.08L43.60 2.36L46.40 2.36ZM39.12-17.60L38.28-23.32L35.52-22.92L36.32-17.20ZM54.32-22.80L51.56-23.20L50.80-17.52L53.56-17.12Z"></path>
                    </g> <!----> <!----> <!----> <!----> <!----> <!----> <!---->
                </g>
                <g class="tp-slogan" transform="translate(5.069999694824219,40.119998931884766)"><!----> <!----> <!---->
                    <g>
                        <path transform="translate(-1.03125,8.578125)"
                              d="M6.42-3.89L2.20-3.89L2.20 0L1.03 0L1.03-8.58L6.98-8.58L6.98-7.59L2.20-7.59L2.20-4.92L6.42-4.92L6.42-3.89ZM13.83-3.19L13.83-8.58L15-8.58L15-3.05L15-3.05Q14.86 0.05 11.48 0.14L11.48 0.14L11.48 0.14Q8.34 0.05 8.20-2.86L8.20-2.86L8.20-8.58L9.38-8.58L9.38-3.19L9.38-3.19Q9.42-0.84 11.53-0.80L11.53-0.80L11.53-0.80Q13.83-0.84 13.83-3.19L13.83-3.19ZM18.98-7.59L16.08-7.59L16.08-8.58L23.02-8.58L23.02-7.59L20.11-7.59L20.11 0L18.98 0L18.98-7.59ZM29.72-3.19L29.72-8.58L30.89-8.58L30.89-3.05L30.89-3.05Q30.75 0.05 27.38 0.14L27.38 0.14L27.38 0.14Q24.23 0.05 24.09-2.86L24.09-2.86L24.09-8.58L25.27-8.58L25.27-3.19L25.27-3.19Q25.31-0.84 27.42-0.80L27.42-0.80L27.42-0.80Q29.72-0.84 29.72-3.19L29.72-3.19ZM36.80-3.70L33.98-3.70L33.98 0L32.81 0L32.81-8.58L36.80-8.58L36.80-8.58Q39.66-8.58 39.66-6.28L39.66-6.28L39.66-6.28Q39.66-4.88 38.44-4.22L38.44-4.22L38.44-4.22Q39.47-3.94 39.47-2.58L39.47-2.58L39.56-1.03L39.56-1.03Q39.52-0.38 39.98-0.19L39.98-0.19L39.98 0L38.53 0L38.53 0Q38.39-0.61 38.34-2.16L38.34-2.16L38.34-2.16Q38.39-3.70 36.80-3.70L36.80-3.70ZM36.89-7.64L33.98-7.64L33.98-4.69L36.70-4.69L36.70-4.69Q38.44-4.69 38.44-6.19L38.44-6.19L38.44-6.19Q38.44-7.64 36.89-7.64L36.89-7.64ZM42.61-1.03L47.77-1.03L47.77 0L41.44 0L41.44-8.58L47.67-8.58L47.67-7.59L42.61-7.59L42.61-4.92L47.30-4.92L47.30-3.89L42.61-3.89L42.61-1.03Z"></path>
                    </g>
                </g>
            </g>
        </g>
    </g>
</svg>