<svg version="1.0" xmlns="http://www.w3.org/2000/svg" xmlns:xlink="http://www.w3.org/1999/xlink" width="225" height="60"
     preserveAspectRatio="none" viewBox="0 0 225 60">
    <!-- 渐变颜色定义-->
    <defs>
        <linearGradient id="qing_yun" x1="0%" y1="0%" x2="100%" y2="0%">
            <stop offset="0%" style="stop-color:rgb(187,255,255);stop-opacity:1"/>
            <stop offset="100%" style="stop-color:rgb(30,144,255);stop-opacity:1"/>
        </linearGradient>
    </defs>
    <defs>
        <linearGradient id="qing_yun2" x1="0%" y1="0%" x2="100%" y2="0%">
            <stop offset="0%" style="stop-color:rgb(0,191,255);stop-opacity:1"/>
            <stop offset="100%" style="stop-color:rgb(30,144,255);stop-opacity:1"/>
        </linearGradient>
    </defs>

    <g fill="#2ea7e0" class="icon-svg-group iconsvg">
        <g class="iconsvg-imagesvg" transform="translate(0,0)">
            <rect style="fill:url(#qing_yun)" fill-opacity="0" stroke-width="2" x="0" y="0" width="60"
                  height="60"></rect>
            <svg x="0" y="0" width="60" height="60" class="imagesvg-svg">
                <svg xmlns="http://www.w3.org/2000/svg" viewBox="0 0 494.38 264.73">
                    <g style="fill:url(#qing_yun)">
                        <path d="M101.65 62.28h8.74a10.94 10.94 0 1 0 0-21.87h-8.74a10.94 10.94 0 1 0 0 21.87zM27.18 160.69H10.94a10.94 10.94 0 1 0 0 21.87h16.24a10.94 10.94 0 1 0 0-21.87z"></path>
                        <path d="M441.63 121.49c0-.69.05-1.38.05-2.07a73.05 73.05 0 0 0-68.37-72.9A110.57 110.57 0 0 0 285.47.15V.08C234.53.08 271.89 0 199 0a11.25 11.25 0 1 0 0 22.49h34.06a11.24 11.24 0 0 1-3.65 21.88h-82.35c-5.86 0-11.13 4.25-11.72 10.09a11.28 11.28 0 0 0 11.19 12.4h35a110.31 110.31 0 0 0-9.07 44c0 3 .13 5.87.36 8.76L50 119.35c-5.87 0-11.13 4.26-11.72 10.09a11.27 11.27 0 0 0 11.19 12.4h61.33c5.86 0 11.13 4.26 11.72 10.1a11.27 11.27 0 0 1-11.19 12.4H63.75c-5.87 0-11.13 4.26-11.72 10.09a11.27 11.27 0 0 0 11.19 12.4h14.13c-.11 1.6-.18 3.21-.18 4.84a73.06 73.06 0 0 0 73.07 73.06h272.43a73 73 0 0 0 19-143.21zM198.38 178.2a13.47 13.47 0 0 1 13.43-13.43H298a13.44 13.44 0 1 1 0 26.87h-86.19a13.35 13.35 0 0 1-5.67-1.28 13.55 13.55 0 0 1-6.8-7.21 13.34 13.34 0 0 1-.96-4.95zm153.4 59.05H213.57c-6.82 0-12.93-4.86-13.82-11.63a13.47 13.47 0 0 1 13.31-15.24h138.22c6.82 0 12.92 4.87 13.82 11.63a13.47 13.47 0 0 1-13.32 15.24zm0-45.61h-9.37a13.44 13.44 0 0 1 0-26.87h9.37a13.44 13.44 0 1 1 0 26.87zm0-45.62H213.06a13.44 13.44 0 0 1 0-26.87h138.72a13.44 13.44 0 1 1 0 26.87z"></path>
                    </g>
                </svg>
            </svg> <!---->
        </g>
        <g transform="translate(67.07944869995117,5.833751678466797)">
            <g class="tp-name iconsvg-namesvg" transform="translate(0.0006256103515625,0)">
                <g style="fill:url(#qing_yun2)">
                    <path transform="translate(-1.28,31.96)"
                          d="M39.24-18.12L39.24-15.44L1.28-15.44L1.28-18.12L15.44-18.12L15.44-20.92L2.24-20.92L2.24-23.64L15.44-23.64L15.44-26.52L2.24-26.52L2.24-29.20L15.44-29.20L15.44-31.96L25.08-31.96L25.08-29.20L38.36-29.20L38.36-26.52L25.08-26.52L25.08-23.64L38.36-23.64L38.36-20.92L25.08-20.92L25.08-18.12L39.24-18.12ZM24 3.80L27.40 3.80L27.40 0.20L13.92 0.20L13.92 6.44L3.92 6.44L3.92-13.72L34.60-13.72L34.60-13.72Q35.64-13.72 36.36-13L36.36-13L36.36-13Q37.08-12.28 37.08-11.24L37.08-11.24L37.08 6.44L24 6.44L24 3.80ZM26.56-11L13.92-11L13.92-8.04L27.40-8.04L27.40-10.20L27.40-10.20Q27.40-11 26.56-11L26.56-11ZM13.92-5.28L13.92-2.36L27.40-2.36L27.40-5.28L13.92-5.28ZM77.04-30.64L77.04-27.92L43.24-27.92L43.24-30.64L77.04-30.64ZM78.92-14.60L58.32-14.60L54.36 1.60L66.72-0.24L64.20-10.20L74.16-10.20L78.36 6.12L68.36 6.12L67.40 2.32L43.36 6.04L42.68 3.32L43.96 3.12L48.24-14.60L41.36-14.60L41.36-17.28L78.92-17.28L78.92-14.60ZM93.72 6.44L93.72 3.60L95.80 3.60L95.80-31.80L105.84-31.80L105.84 6.44L93.72 6.44ZM91.04-0.88L82.12-0.88L85.16-21.76L93.92-21.76L91.04-0.88ZM115.84-21.76L118.60-0.88L109.72-0.88L107.04-21.76L115.84-21.76ZM133.48-31.92L133.48-26.12L137.40-26.12L137.40-23.36L133.48-23.36L133.48 6.24L125.56 6.24L125.56-23.36L121.64-23.36L121.64-26.12L125.56-26.12L125.56-31.92L133.48-31.92ZM159.16-12.28L153.44-12.28L154.60-6.44L158.96-7.92L158.96-4.96L155.16-3.68L157.12 6.36L148.60 6.36L147.20-1L139.92 1.44L139.92-1.52L146.64-3.80L145-12.28L138.44-12.28L138.44-14.96L144.52-14.96L143.28-21.28L138.92-21.28L138.92-24L142.76-24L141.28-31.72L149.64-31.72L151.16-24L158.48-24L158.48-21.28L151.68-21.28L152.92-14.96L159.16-14.96L159.16-12.28ZM156.76-25.64L151.40-25.64L150.68-31.40L156.04-31.40L156.76-25.64ZM121.52 3.76L122.32-21.68L124.76-21.68L124.28 3.76L121.52 3.76ZM134.28-21.68L136.76-21.68L137.12-1.88L134.60-1.88L134.28-21.68Z"></path>
                </g> <!----> <!----> <!----> <!----> <!----> <!----> <!---->
            </g>
            <g class="tp-slogan iconsvg-slogansvg" style="fill:url(#qing_yun2)"
               transform="translate(0,38.95999717712402)"><!---->
                <rect fill-opacity="0" x="0" height="1" y="4.185000419616699" width="76.510009765625"></rect> <!---->
                <g transform="translate(79.510009765625,0)">
                    <path transform="translate(-0.46875,8.8125)"
                          d="M5.91-1.08L5.02-1.78L5.63-2.48L6.70-1.64L6.70-1.64Q7.69-2.63 7.69-4.27L7.69-4.27L7.69-4.27Q7.50-7.64 4.69-7.83L4.69-7.83L4.69-7.83Q1.83-7.69 1.69-4.27L1.69-4.27L1.69-4.27Q1.83-0.94 4.69-0.80L4.69-0.80L4.69-0.80Q5.39-0.80 5.91-1.08L5.91-1.08ZM7.64-0.94L8.77-0.05L8.20 0.56L6.89-0.33L6.89-0.33Q6.05 0.14 4.69 0.14L4.69 0.14L4.69 0.14Q0.75 0 0.47-4.27L0.47-4.27L0.47-4.27Q0.70-8.72 4.69-8.81L4.69-8.81L4.69-8.81Q8.58-8.67 8.86-4.27L8.86-4.27L8.86-4.27Q8.81-2.20 7.64-0.94L7.64-0.94ZM10.41-8.58L11.58-8.58L11.58 0L10.41 0L10.41-8.58ZM14.95-8.58L19.27-1.64L19.27-8.58L20.39-8.58L20.39 0L19.08 0L14.72-6.94L14.67-6.94L14.67 0L13.55 0L13.55-8.58L14.95-8.58ZM28.59-3.61L25.97-3.61L25.97-4.59L29.72-4.59L29.72 0L28.97 0L28.69-1.08L28.69-1.08Q27.70 0.09 25.88 0.14L25.88 0.14L25.88 0.14Q24.14 0.14 23.20-0.75L23.20-0.75L23.20-0.75Q21.80-2.06 21.84-4.36L21.84-4.36L21.84-4.36Q22.17-8.63 25.92-8.81L25.92-8.81L25.92-8.81Q29.11-8.63 29.58-6L29.58-6L28.45-6L28.45-6Q27.98-7.78 25.88-7.83L25.88-7.83L25.88-7.83Q23.20-7.64 23.06-4.31L23.06-4.31L23.06-4.31Q23.06-0.75 25.92-0.75L25.92-0.75L25.92-0.75Q26.95-0.75 27.70-1.31L27.70-1.31L27.70-1.31Q28.64-2.06 28.59-3.61L28.59-3.61ZM38.44-8.58L35.20-3.47L35.20 0L34.03 0L34.03-3.47L30.80-8.58L32.16-8.58L34.59-4.45L37.08-8.58L38.44-8.58ZM45.14-3.19L45.14-8.58L46.31-8.58L46.31-3.05L46.31-3.05Q46.17 0.05 42.80 0.14L42.80 0.14L42.80 0.14Q39.66 0.05 39.52-2.86L39.52-2.86L39.52-8.58L40.69-8.58L40.69-3.19L40.69-3.19Q40.73-0.84 42.84-0.80L42.84-0.80L42.84-0.80Q45.14-0.84 45.14-3.19L45.14-3.19ZM49.50-8.58L53.81-1.64L53.81-8.58L54.94-8.58L54.94 0L53.63 0L49.27-6.94L49.22-6.94L49.22 0L48.09 0L48.09-8.58L49.50-8.58ZM60.23-8.58L61.41-8.58L61.41 0L60.23 0L60.23-8.58ZM64.78-8.58L69.09-1.64L69.09-8.58L70.22-8.58L70.22 0L68.91 0L64.55-6.94L64.50-6.94L64.50 0L63.38 0L63.38-8.58L64.78-8.58ZM73.41-8.58L77.72-1.64L77.72-8.58L78.84-8.58L78.84 0L77.53 0L73.17-6.94L73.13-6.94L73.13 0L72 0L72-8.58L73.41-8.58Z"></path>
                </g>
            </g>
        </g>
    </g>
</svg>