<svg version="1.0" xmlns="http://www.w3.org/2000/svg" xmlns:xlink="http://www.w3.org/1999/xlink"
     width="120" height="120" preserveAspectRatio="xMidYMid meet"
     color-interpolation-filters="sRGB" class="el-tooltip" style="margin: auto;">

    <defs>
        <radialGradient id="grey_blue" cx="50%" cy="50%" r="50%" fx="50%" fy="50%">
            <stop offset="0%" style="stop-color:rgb(1,160,250);stop-opacity:1"/>
            <stop offset="100%" style="stop-color:rgb(41,243,153);stop-opacity:1"/>
        </radialGradient>
        <linearGradient id="orange_red" x1="0%" y1="0%" x2="100%" y2="0%">
            <stop offset="0%" style="stop-color:rgb(1,160,250);stop-opacity:1"/>
            <stop offset="100%" style="stop-color:rgb(41,243,153);stop-opacity:1"/>
        </linearGradient>
    </defs>

    <g fill="#6b4226" class="linesvg" transform="translate(16,16)">
       <!-- <rect x="0" y="0" width="100%" height="100%" fill="url(#orange_red)" fill-opacity="1"
              transform="translate(-128.30374908447266,-82.42528533935547)"></rect>-->
        <line stroke="#6b4226" stroke-width="1" x1="0" y1="0" x2="14.690057241898497" y2="15"></line>
        <line stroke="#6b4226" stroke-width="1" x1="83.38999938964844" y1="0" x2="68.69994214774994" y2="15"></line>
        <line stroke="#6b4226" stroke-width="1" x1="0" y1="85.14942932128906" x2="14.690057241898497"
              y2="70.14942932128906"></line>
        <line stroke="#6b4226" stroke-width="1" x1="83.38999938964844" y1="85.14942932128906" x2="68.69994214774994"
              y2="70.14942932128906"></line> <!----> <!---->
        <g fill="#6b4226" transform="translate(0,20)">
            <g class="tp-name" transform="translate(6.945587158203125,0)">
                <g>
                    <path transform="translate(-2.6211767578125,29.196921386719)"
                          d="M18.36-20.68L18.36-21.36L18.36-21.36Q18.40-21.76 18.76-21.84L18.76-21.84L18.76-21.84Q20.76-22.12 22.84-22.40L22.84-22.40L22.84-22.40Q24.60-22.64 26.32-22.84L26.32-22.84L26.32-23.08L26.32-23.08Q26.36-24.68 26.52-25.96L26.52-25.96L26.52-25.96Q26.68-27.24 26.98-28.06L26.98-28.06L26.98-28.06Q27.28-28.88 27.80-28.88L27.80-28.88L27.80-28.88Q28.16-28.88 28.42-28.14L28.42-28.14L28.42-28.14Q28.68-27.40 28.84-26.26L28.84-26.26L28.84-26.26Q29-25.12 29.08-23.72L29.08-23.72L29.08-23.04L29.08-23.04Q30.28-23.08 31.44-23.16L31.44-23.16L31.44-23.16Q33.56-23.24 35.60-23.04L35.60-23.04L35.60-23.04Q35.84-23.04 36.14-22.92L36.14-22.92L36.14-22.92Q36.44-22.80 36.70-22.62L36.70-22.62L36.70-22.62Q36.96-22.44 37.14-22.20L37.14-22.20L37.14-22.20Q37.32-21.96 37.32-21.72L37.32-21.72L37.32-21.72Q37.32-20.88 36.04-20.36L36.04-20.36L36.04-20.36Q34.76-19.84 32.84-19.56L32.84-19.56L32.84-19.56Q31.20-19.36 29.24-19.32L29.24-19.32L29.24-15.12L29.24-15.12Q29.24-14.80 29.16-14.52L29.16-14.52L29.16-14.52Q30.64-14.44 31.92-14.08L31.92-14.08L31.92-14.08Q33.68-13.60 34.86-12.42L34.86-12.42L34.86-12.42Q36.04-11.24 36.04-9.12L36.04-9.12L36.04-9.12Q36.04-8.16 35.42-6.88L35.42-6.88L35.42-6.88Q34.80-5.60 33.80-4.26L33.80-4.26L33.80-4.26Q32.80-2.92 31.56-1.68L31.56-1.68L31.56-1.68Q32.68-1 33.52-0.48L33.52-0.48L33.52-0.48Q34.60 0.20 34.88 0.40L34.88 0.40L34.88 0.40Q35.20 0.64 35.48 0.94L35.48 0.94L35.48 0.94Q35.76 1.24 35.76 1.68L35.76 1.68L35.76 1.68Q35.76 2.12 35.38 2.34L35.38 2.34L35.38 2.34Q35 2.56 34.60 2.56L34.60 2.56L34.60 2.56Q33.76 2.56 32.56 2.06L32.56 2.06L32.56 2.06Q31.36 1.56 30 0.76L30 0.76L29.28 0.36L29.28 0.36Q29.12 0.52 28.92 0.68L28.92 0.68L28.92 0.68Q27.60 1.68 26.36 2.30L26.36 2.30L26.36 2.30Q25.12 2.92 24.16 2.92L24.16 2.92L24.16 2.92Q23.96 2.92 23.70 2.86L23.70 2.86L23.70 2.86Q23.44 2.80 23.44 2.52L23.44 2.52L23.44 2.52Q23.44 2.08 24.14 1.32L24.14 1.32L24.14 1.32Q24.84 0.56 25.92-0.36L25.92-0.36L25.92-0.36Q26.40-0.80 26.96-1.28L26.96-1.28L26.96-1.28Q25.72-2.20 24.64-3.12L24.64-3.12L24.64-3.12Q23.44-4.16 22.46-5.12L22.46-5.12L22.46-5.12Q21.48-6.08 21-6.80L21-6.80L20.88-6.84L20.88-6.84Q20.88-7.08 20.92-7.38L20.92-7.38L20.92-7.38Q20.96-7.68 21.28-7.68L21.28-7.68L21.28-7.68Q21.40-7.68 22.36-7.12L22.36-7.12L22.36-7.12Q23.32-6.56 24.74-5.74L24.74-5.74L24.74-5.74Q26.16-4.92 27.80-3.92L27.80-3.92L27.80-3.92Q28.44-3.56 29.04-3.16L29.04-3.16L29.04-3.16Q29.84-3.88 30.56-4.60L30.56-4.60L30.56-4.60Q31.64-5.76 32.34-6.92L32.34-6.92L32.34-6.92Q33.04-8.08 33.04-9.12L33.04-9.12L33.04-9.12Q33.04-10.16 32.30-10.74L32.30-10.74L32.30-10.74Q31.56-11.32 30.40-11.58L30.40-11.58L30.40-11.58Q29.24-11.84 27.82-11.84L27.82-11.84L27.82-11.84Q26.40-11.84 25.06-11.76L25.06-11.76L25.06-11.76Q23.72-11.68 22.56-11.56L22.56-11.56L22.56-11.56Q21.40-11.44 20.80-11.44L20.80-11.44L20.80-11.44Q20.16-11.44 20.16-11.96L20.16-11.96L20.16-11.96Q20.16-12.48 21.32-13.06L21.32-13.06L21.32-13.06Q22.48-13.64 24.28-14.04L24.28-14.04L24.28-14.04Q25.48-14.32 26.84-14.44L26.84-14.44L26.84-14.44Q26.64-14.96 26.56-15.76L26.56-15.76L26.56-15.76Q26.52-16.32 26.44-17.48L26.44-17.48L26.44-17.48Q26.36-18.32 26.32-19.32L26.32-19.32L26.32-19.32Q25.20-19.40 24.16-19.48L24.16-19.48L24.16-19.48Q22.04-19.64 20.44-19.96L20.44-19.96L20.44-19.96Q18.84-20.28 18.36-20.68L18.36-20.68ZM7.48-12.48L7.48-12.48L7.48-12.48Q7.92-12.32 8.16-12.08L8.16-12.08L8.16-12.08Q8.44-11.84 8.52-11.48L8.52-11.48L8.52-11.48Q10.32-12.88 11.64-13.24L11.64-13.24L11.64-13.24Q11.28-15.60 10.80-17.76L10.80-17.76L10.80-17.76Q10.72-18.16 10.60-18.60L10.60-18.60L10.60-18.60Q9.84-18.52 9.04-18.44L9.04-18.44L9.04-18.44Q7.72-18.36 6.64-18.34L6.64-18.34L6.64-18.34Q5.56-18.32 4.96-18.32L4.96-18.32L4.96-18.32Q4.72-18.32 4.30-18.36L4.30-18.36L4.30-18.36Q3.88-18.40 3.48-18.52L3.48-18.52L3.48-18.52Q3.08-18.64 2.82-18.88L2.82-18.88L2.82-18.88Q2.56-19.12 2.64-19.48L2.64-19.48L2.64-19.48Q2.68-19.68 2.80-19.88L2.80-19.88L2.80-19.88Q2.92-20.08 3.12-20.16L3.12-20.16L3.12-20.16Q4.60-20.24 6.24-20.56L6.24-20.56L6.24-20.56Q7.88-20.88 9.48-21.20L9.48-21.20L9.48-21.20Q9.72-21.24 9.88-21.28L9.88-21.28L9.88-21.28Q9.76-21.80 9.64-22.28L9.64-22.28L9.64-22.28Q9-24.24 8.56-24.92L8.56-24.92L8.56-24.92Q8.40-25.12 8.48-25.32L8.48-25.32L8.48-25.32Q8.56-25.52 8.76-25.66L8.76-25.66L8.76-25.66Q8.96-25.80 9.22-25.90L9.22-25.90L9.22-25.90Q9.48-26 9.68-26L9.68-26L9.68-26Q10.20-26 10.60-25.58L10.60-25.58L10.60-25.58Q11-25.16 11.30-24.58L11.30-24.58L11.30-24.58Q11.60-24 11.80-23.40L11.80-23.40L12.16-22.44L12.40-21.76L12.64-21.84L12.64-21.84Q14.16-22.12 15.44-22.12L15.44-22.12L15.44-22.12Q15.96-22.12 16.42-21.88L16.42-21.88L16.42-21.88Q16.88-21.64 16.88-21.08L16.88-21.08L16.88-21.08Q16.88-20.44 16.16-20L16.16-20L16.16-20Q15.44-19.56 14.32-19.24L14.32-19.24L14.32-19.24Q13.84-19.08 13.32-18.96L13.32-18.96L13.32-18.96Q13.56-18 13.88-16.92L13.88-16.92L13.88-16.92Q14.32-15.36 14.68-13.56L14.68-13.56L14.68-13.56Q15.80-13.52 17.20-13.24L17.20-13.24L17.20-13.24Q17.56-13.24 17.98-12.98L17.98-12.98L17.98-12.98Q18.40-12.72 18.28-12.36L18.28-12.36L18.08-12.08L18.08-12.08Q17.68-11.56 17.48-11.76L17.48-11.76L17.48-11.76Q16.12-12.08 14.96-12.12L14.96-12.12L14.96-12.12Q15.24-10.64 15.36-9.20L15.36-9.20L15.36-9.20Q15.52-7.28 15.42-5.52L15.42-5.52L15.42-5.52Q15.32-3.76 14.72-2.42L14.72-2.42L14.72-2.42Q14.12-1.08 13.02-0.28L13.02-0.28L13.02-0.28Q11.92 0.52 10.08 0.52L10.08 0.52L10.08 0.52Q8.88 0.52 7.80 0.08L7.80 0.08L7.80 0.08Q6.28-0.56 7-1.56L7-1.56L7.08-1.72L7.08-1.72Q7.80-2.68 8.92-2.12L8.92-2.12L8.92-2.12Q9.56-1.92 10.20-1.92L10.20-1.92L10.20-1.92Q11.32-1.92 11.78-3.44L11.78-3.44L11.78-3.44Q12.24-4.96 12.20-7.28L12.20-7.28L12.20-7.28Q12.16-9.28 11.84-11.68L11.84-11.68L11.84-11.68Q11.24-11.44 10.72-11.12L10.72-11.12L10.72-11.12Q10.32-10.92 9.96-10.72L9.96-10.72L9.96-10.72Q10.20-10.60 10.28-10.52L10.28-10.52L10.28-10.52Q10.60-10.48 10.90-10.32L10.90-10.32L10.90-10.32Q11.20-10.16 11.36-9.88L11.36-9.88L11.36-9.88Q11.76-9.44 11.66-8.92L11.66-8.92L11.66-8.92Q11.56-8.40 10.92-8.28L10.92-8.28L10.92-8.28Q10.72-8.32 10.44-8.44L10.44-8.44L10.44-8.44Q10.56-8.16 10.48-7.88L10.48-7.88L10.48-7.88Q10.60-7.12 10.30-6.44L10.30-6.44L10.30-6.44Q10-5.76 9.44-5.08L9.44-5.08L9.44-5.08Q9.04-4.84 8.58-4.66L8.58-4.66L8.58-4.66Q8.12-4.48 7.66-4.36L7.66-4.36L7.66-4.36Q7.20-4.24 6.78-4.20L6.78-4.20L6.78-4.20Q6.36-4.16 6.24-4.24L6.24-4.24L6.24-4.24Q5.60-4.24 4.82-4.40L4.82-4.40L4.82-4.40Q4.04-4.56 3.80-4.88L3.80-4.88L3.80-4.88Q3.24-5.24 2.96-5.92L2.96-5.92L2.96-5.92Q2.68-6.60 2.68-7.36L2.68-7.36L2.68-7.36Q2.68-8.24 2.94-8.96L2.94-8.96L2.94-8.96Q3.20-9.68 3.76-10.12L3.76-10.12L3.76-10.12Q4.36-10.72 5.16-11L5.16-11L5.16-11Q5.68-11.24 6.28-11.28L6.28-11.28L6.28-11.28Q6.16-11.40 6.20-11.48L6.20-11.48L6.20-11.48Q6.12-11.68 6.16-11.94L6.16-11.94L6.16-11.94Q6.20-12.20 6.40-12.38L6.40-12.38L6.40-12.38Q6.60-12.56 6.88-12.62L6.88-12.62L6.88-12.62Q7.16-12.68 7.48-12.48ZM6.88-10.60L6.80-10.56L6.80-10.56Q6.16-10.56 5.52-10.28L5.52-10.28L5.52-10.28Q4.88-10 4.32-9.56L4.32-9.56L4.32-9.56Q3.92-9.20 3.74-8.60L3.74-8.60L3.74-8.60Q3.56-8 3.60-7.32L3.60-7.32L3.60-7.32Q3.72-6.76 3.86-6.22L3.86-6.22L3.86-6.22Q4-5.68 4.36-5.48L4.36-5.48L4.36-5.48Q4.44-5.32 4.94-5.16L4.94-5.16L4.94-5.16Q5.44-5 6.20-5L6.20-5L6.20-5Q7.12-5 7.74-5.22L7.74-5.22L7.74-5.22Q8.36-5.44 8.60-5.72L8.60-5.72L8.60-5.72Q9.28-6.20 9.42-6.76L9.42-6.76L9.42-6.76Q9.56-7.32 9.64-7.88L9.64-7.88L9.64-7.88Q9.64-8.44 9.44-8.96L9.44-8.96L9.44-8.96Q9.48-9.04 9.40-9.08L9.40-9.08L9.36-9L9.36-9Q9.28-8.92 9.18-8.76L9.18-8.76L9.18-8.76Q9.08-8.60 8.76-8.48L8.76-8.48L8.76-8.48Q8.24-8.48 8.08-8.80L8.08-8.80L8.08-8.80Q7.92-9.12 7.96-9.24L7.96-9.24L7.96-9.24Q7.92-9.44 8.04-9.64L8.04-9.64L8.16-9.92L8.16-9.92Q7.92-9.76 7.68-9.68L7.68-9.68L7.68-9.68Q7.52-9.64 7.34-9.58L7.34-9.58L7.34-9.58Q7.16-9.52 7.08-9.68L7.08-9.68L7.08-9.68Q6.96-9.72 6.84-9.88L6.84-9.88L6.84-9.88Q6.72-10.04 6.70-10.22L6.70-10.22L6.70-10.22Q6.68-10.40 6.88-10.56L6.88-10.56L6.88-10.60ZM5.56-9.56L5.56-9.56L5.56-9.56Q5.64-9.60 5.84-9.64L5.84-9.64L5.84-9.64Q6.04-9.68 6.08-9.52L6.08-9.52L6.08-9.52Q6.28-9.32 6.08-9.12L6.08-9.12L6.08-9.12Q5.96-8.96 5.80-8.98L5.80-8.98L5.80-8.98Q5.64-9 5.60-9.08L5.60-9.08L5.60-9.08Q5.36-9.12 5.36-9.28L5.36-9.28L5.36-9.28Q5.36-9.44 5.56-9.56ZM4.80-8.40L4.80-8.40L4.80-8.40Q4.88-8.44 5.06-8.46L5.06-8.46L5.06-8.46Q5.24-8.48 5.28-8.40L5.28-8.40L5.28-8.40Q5.44-8.24 5.32-7.84L5.32-7.84L5.32-7.84Q5.24-7.72 5.06-7.74L5.06-7.74L5.06-7.74Q4.88-7.76 4.80-7.84L4.80-7.84L4.80-7.84Q4.64-8.04 4.80-8.40ZM5.24-6.84L5.24-6.84L5.24-6.84Q5.28-7 5.44-7.02L5.44-7.02L5.44-7.02Q5.60-7.04 5.72-6.96L5.72-6.96L5.72-6.96Q5.80-6.68 5.68-6.36L5.68-6.36L5.68-6.36Q5.64-6.32 5.46-6.28L5.46-6.28L5.46-6.28Q5.28-6.24 5.20-6.32L5.20-6.32L5.20-6.32Q5.16-6.44 5.12-6.60L5.12-6.60L5.12-6.60Q5.08-6.76 5.24-6.84ZM6.44-8.28L6.44-8.28L6.44-8.28Q6.56-8.44 6.68-8.40L6.68-8.40L6.68-8.40Q6.80-8.36 6.92-8.28L6.92-8.28L6.92-8.28Q7.16-8.24 7.14-8.08L7.14-8.08L7.14-8.08Q7.12-7.92 7.04-7.88L7.04-7.88L7.04-7.88Q6.88-7.68 6.44-7.84L6.44-7.84L6.44-7.84Q6.32-7.92 6.32-8.06L6.32-8.06L6.32-8.06Q6.32-8.20 6.44-8.28ZM6.80-6.68L6.80-6.68L6.80-6.68Q6.92-6.80 7.06-6.84L7.06-6.84L7.06-6.84Q7.20-6.88 7.36-6.72L7.36-6.72L7.36-6.72Q7.44-6.64 7.42-6.48L7.42-6.48L7.42-6.48Q7.40-6.32 7.28-6.28L7.28-6.28L7.28-6.28Q7.20-6.20 7.04-6.18L7.04-6.18L7.04-6.18Q6.88-6.16 6.80-6.28L6.80-6.28L6.80-6.28Q6.68-6.36 6.64-6.48L6.64-6.48L6.64-6.48Q6.60-6.60 6.80-6.68ZM8.04-7.76L8.04-7.76L8.04-7.76Q8.12-7.84 8.28-7.84L8.28-7.84L8.28-7.84Q8.44-7.84 8.52-7.76L8.52-7.76L8.52-7.76Q8.64-7.60 8.62-7.50L8.62-7.50L8.62-7.50Q8.60-7.40 8.52-7.32L8.52-7.32L8.52-7.32Q8.44-7.12 8.28-7.12L8.28-7.12L8.28-7.12Q8.12-7.12 8.08-7.16L8.08-7.16L8.08-7.16Q7.92-7.48 8.04-7.76ZM44.28-17.68L44.28-17.68L44.28-17.68Q44.28-18.04 44.64-18.26L44.64-18.26L44.64-18.26Q45-18.48 45.48-18.60L45.48-18.60L45.48-18.60Q45.96-18.72 46.44-18.74L46.44-18.74L46.44-18.74Q46.92-18.76 47.16-18.80L47.16-18.80L47.16-18.80Q50.88-19.20 54.76-19.04L54.76-19.04L54.76-19.04Q56.04-19.04 57.28-19L57.28-19L57.28-24.72L57.28-24.72Q57.40-24.92 57.44-25.30L57.44-25.30L57.44-25.30Q57.48-25.68 57.62-25.96L57.62-25.96L57.62-25.96Q57.76-26.24 57.96-26.36L57.96-26.36L57.96-26.36Q58.16-26.48 58.56-26.20L58.56-26.20L58.56-26.20Q58.84-25.44 59.08-23.40L59.08-23.40L59.08-23.40Q59.28-21.48 59.44-18.96L59.44-18.96L70.08-18.96L70.08-18.96Q70.88-18.96 71.32-18.54L71.32-18.54L71.32-18.54Q71.76-18.12 71.62-17.64L71.62-17.64L71.62-17.64Q71.48-17.16 70.72-16.78L70.72-16.78L70.72-16.78Q69.96-16.40 68.40-16.40L68.40-16.40L68.40-16.40Q63.96-16.40 59.60-16.52L59.60-16.52L59.60-16.52Q59.68-14.88 59.76-13.08L59.76-13.08L59.76-13.08Q59.84-11 59.88-9L59.88-9L59.88-9Q60.84-8.64 62.08-8.10L62.08-8.10L62.08-8.10Q63.32-7.56 64.70-6.90L64.70-6.90L64.70-6.90Q66.08-6.24 67.32-5.64L67.32-5.64L67.32-5.64Q68.56-5.04 69.46-4.54L69.46-4.54L69.46-4.54Q70.36-4.04 70.56-3.80L70.56-3.80L70.56-3.80Q70.88-3.52 71.08-3.18L71.08-3.18L71.08-3.18Q71.28-2.84 71.28-2.40L71.28-2.40L71.28-2.40Q71.28-1.80 70.84-1.60L70.84-1.60L70.84-1.60Q70.40-1.40 69.96-1.40L69.96-1.40L69.96-1.40Q69.52-1.40 68.36-1.86L68.36-1.86L68.36-1.86Q67.20-2.32 65.80-3.02L65.80-3.02L65.80-3.02Q64.40-3.72 62.92-4.62L62.92-4.62L62.92-4.62Q61.44-5.52 60.32-6.40L60.32-6.40L60.32-6.40Q60.08-6.56 59.92-6.72L59.92-6.72L59.92-6.72Q60-4.28 60-2.28L60-2.28L60-2.28Q60.04-0.04 60.04 1.08L60.04 1.08L60.04 1.08Q60.04 1.96 59.72 2.66L59.72 2.66L59.72 2.66Q59.40 3.36 58.98 3.62L58.98 3.62L58.98 3.62Q58.56 3.88 58.14 3.54L58.14 3.54L58.14 3.54Q57.72 3.20 57.48 2L57.48 2L57.48 2.04L57.48 2.04Q57.40 1.80 57.36 1L57.36 1L57.36 1Q57.32 0.20 57.30-0.74L57.30-0.74L57.30-0.74Q57.28-1.68 57.28-2.48L57.28-2.48L57.28-6.48L57.28-6.48Q57.04-6.32 56.80-6.08L56.80-6.08L56.80-6.08Q55.76-5.20 54.46-4.30L54.46-4.30L54.46-4.30Q53.16-3.40 51.80-2.60L51.80-2.60L51.80-2.60Q50.44-1.80 49.12-1.20L49.12-1.20L49.12-1.20Q47.80-0.60 46.76-0.34L46.76-0.34L46.76-0.34Q45.72-0.08 45.10-0.24L45.10-0.24L45.10-0.24Q44.48-0.40 44.48-1.16L44.48-1.16L44.48-1.72L44.48-1.72Q44.52-1.88 44.76-2.06L44.76-2.06L44.76-2.06Q45-2.24 45.30-2.40L45.30-2.40L45.30-2.40Q45.60-2.56 45.88-2.68L45.88-2.68L46.32-2.92L46.32-2.92Q49.32-4.48 52.08-6.04L52.08-6.04L52.08-6.04Q54.76-7.52 57.28-9.56L57.28-9.56L57.28-16.60L57.28-16.60Q54.04-16.72 50.76-16.72L50.76-16.72L50-16.72L50-16.72Q49.40-16.72 48.68-16.74L48.68-16.74L48.68-16.74Q47.96-16.76 47.20-16.82L47.20-16.82L47.20-16.82Q46.44-16.88 45.78-16.98L45.78-16.98L45.78-16.98Q45.12-17.08 44.70-17.24L44.70-17.24L44.70-17.24Q44.28-17.40 44.28-17.68ZM64.52-23.48L64.52-24.24L64.52-24.24Q64.68-24.44 64.78-24.62L64.78-24.62L64.78-24.62Q64.88-24.80 65.04-25L65.04-25L64.88-24.88L64.88-24.88Q64.56-25.32 64.44-25.72L64.44-25.72L64.44-25.72Q64.32-26.12 64.28-26.60L64.28-26.60L64.28-26.60Q64.40-27.16 64.70-27.50L64.70-27.50L64.70-27.50Q65-27.84 65.32-28.04L65.32-28.04L65.32-28.04Q65.80-28.20 66.14-28.22L66.14-28.22L66.14-28.22Q66.48-28.24 66.80-28.04L66.80-28.04L66.80-28.04Q67-28.64 67.56-29L67.56-29L67.56-29Q68.16-29.32 68.90-29.12L68.90-29.12L68.90-29.12Q69.64-28.92 70.04-28.32L70.04-28.32L70.04-28.32Q70.44-27.72 70.20-27.08L70.20-27.08L70.44-27.16L70.52-27.12L70.52-27.12Q71.20-27.04 71.62-26.58L71.62-26.58L71.62-26.58Q72.04-26.12 72.12-25.52L72.12-25.52L72.12-25.52Q72.04-24.96 71.82-24.54L71.82-24.54L71.82-24.54Q71.60-24.12 71.16-23.84L71.16-23.84L70.80-23.68L70.56-23.68L70.56-23.68Q70.80-22.88 70.44-22.20L70.44-22.20L70.44-22.20Q70.36-21.96 70.22-21.80L70.22-21.80L70.22-21.80Q70.08-21.64 69.76-21.48L69.76-21.48L69.76-21.48Q69.60-21.40 69.38-21.36L69.38-21.36L69.38-21.36Q69.16-21.32 68.92-21.28L68.92-21.28L68.92-21.28Q68.48-21.28 68.02-21.54L68.02-21.54L68.02-21.54Q67.56-21.80 67.36-22.16L67.36-22.16L67.16-22.08L67.16-22.08Q66.96-21.92 66.60-21.92L66.60-21.92L65.88-21.92L65.88-21.92Q65.56-22.16 65.22-22.34L65.22-22.34L65.22-22.34Q64.88-22.52 64.72-22.88L64.72-22.88L64.72-22.88Q64.52-23.16 64.52-23.48L64.52-23.48ZM70.48-24.44L70.48-24.44L70.48-24.44Q70.80-24.44 71.06-24.74L71.06-24.74L71.06-24.74Q71.32-25.04 71.32-25.56L71.32-25.56L71.32-25.56Q71.32-25.92 71.04-26.16L71.04-26.16L71.04-26.16Q70.76-26.40 70.44-26.48L70.44-26.48L70.44-26.48Q70.20-26.44 69.90-26.42L69.90-26.42L69.90-26.42Q69.60-26.40 69.40-26.08L69.40-26.08L69.40-26.08Q69.64-25.68 69.64-25.32L69.64-25.32L69.64-25.32Q69.64-24.96 69.56-24.68L69.56-24.68L69.56-24.68Q69.72-24.44 70.02-24.38L70.02-24.38L70.02-24.38Q70.32-24.32 70.48-24.44ZM69.32-27.88L69.32-27.88L69.32-27.88Q69.12-28.28 68.72-28.38L68.72-28.38L68.72-28.38Q68.32-28.48 67.96-28.28L67.96-28.28L67.96-28.28Q67.48-27.96 67.40-27.60L67.40-27.60L67.40-27.60Q67.32-27.24 67.48-26.84L67.48-26.84L67.56-26.72L67.56-26.72Q67.84-26.76 68.22-26.74L68.22-26.74L68.22-26.74Q68.60-26.72 68.80-26.52L68.80-26.52L68.80-26.52Q68.96-26.72 69.14-26.84L69.14-26.84L69.14-26.84Q69.32-26.96 69.48-27L69.48-27L69.48-27Q69.48-27.28 69.44-27.50L69.44-27.50L69.44-27.50Q69.40-27.72 69.32-27.88ZM68.96-22.12L68.96-22.12L68.96-22.12Q69.52-22.16 69.76-22.56L69.76-22.56L69.76-22.56Q70-22.96 70-23.18L70-23.18L70-23.18Q70-23.40 69.88-23.64L69.88-23.64L69.88-23.64Q69.56-23.68 69.42-23.74L69.42-23.74L69.42-23.74Q69.28-23.80 69.16-24L69.16-24L68.76-23.80L68.76-23.80Q68.64-23.68 68.40-23.66L68.40-23.66L68.40-23.66Q68.16-23.64 67.92-23.64L67.92-23.64L67.92-23.64Q67.84-23 68-22.68L68-22.68L68-22.68Q68.16-22.36 68.38-22.22L68.38-22.22L68.38-22.22Q68.60-22.08 68.96-22.12ZM66.04-22.68L66.04-22.68L66.04-22.68Q66.36-22.56 66.64-22.66L66.64-22.66L66.64-22.66Q66.92-22.76 67.04-22.96L67.04-22.96L67.04-23.36L67.04-23.36Q67.04-23.56 67.16-23.80L67.16-23.80L67.16-23.80Q67.04-23.84 66.86-24.04L66.86-24.04L66.86-24.04Q66.68-24.24 66.56-24.44L66.56-24.44L66.48-24.52L66.48-24.52Q66.32-24.56 66.12-24.56L66.12-24.56L65.76-24.56L65.76-24.56Q65.56-24.44 65.44-24.28L65.44-24.28L65.44-24.28Q65.32-24.12 65.32-24L65.32-24L65.32-23.60L65.32-23.60Q65.32-23.44 65.40-23.28L65.40-23.28L65.40-23.28Q65.56-23 65.72-22.92L65.72-22.92L65.72-22.92Q65.88-22.84 66.04-22.68ZM65.76-27.32L65.76-27.32L65.76-27.32Q65.52-27.28 65.32-27.06L65.32-27.06L65.32-27.06Q65.12-26.84 65.20-26.48L65.20-26.48L65.20-26.48Q65.12-26.16 65.20-25.98L65.20-25.98L65.20-25.98Q65.28-25.80 65.56-25.60L65.56-25.60L65.56-25.60Q65.60-25.36 65.86-25.32L65.86-25.32L65.86-25.32Q66.12-25.28 66.28-25.36L66.28-25.36L66.28-25.36Q66.32-25.72 66.44-25.94L66.44-25.94L66.44-25.94Q66.56-26.16 66.88-26.32L66.88-26.32L66.76-26.48L66.76-26.48Q66.68-26.68 66.64-26.88L66.64-26.88L66.64-26.88Q66.60-27.08 66.60-27.28L66.60-27.28L66.60-27.28Q66.24-27.56 65.76-27.32ZM68.36-24.44L68.72-24.68L68.72-24.68Q68.88-25.24 68.72-25.60L68.72-25.60L68.72-25.60Q68.56-25.92 68.20-26.02L68.20-26.02L68.20-26.02Q67.84-26.12 67.56-25.92L67.56-25.92L67.56-25.92Q67.16-25.72 67.10-25.42L67.10-25.42L67.10-25.42Q67.04-25.12 67.20-24.80L67.20-24.80L67.20-24.80Q67.64-24.08 68.36-24.44L68.36-24.44Z"></path>
                </g> <!----> <!----> <!----> <!----> <!----> <!----> <!---->
            </g>
            <g class="tp-slogan" transform="translate(0,36.19693183898926)"><!----> <!----> <!---->
                <g>
                    <path transform="translate(-0.1875,8.8125)"
                          d="M3.09-7.59L0.19-7.59L0.19-8.58L7.13-8.58L7.13-7.59L4.22-7.59L4.22 0L3.09 0L3.09-7.59ZM9.47-1.03L14.63-1.03L14.63 0L8.30 0L8.30-8.58L14.53-8.58L14.53-7.59L9.47-7.59L9.47-4.92L14.16-4.92L14.16-3.89L9.47-3.89L9.47-1.03ZM23.30-6.05L23.30-6.05L22.17-6.05L22.17-6.05Q21.75-7.78 19.78-7.83L19.78-7.83L19.78-7.83Q17.06-7.69 16.97-4.36L16.97-4.36L16.97-4.36Q16.97-0.80 19.83-0.80L19.83-0.80L19.83-0.80Q21.80-0.84 22.27-3.19L22.27-3.19L23.39-3.19L23.39-3.19Q22.88 0.05 19.59 0.14L19.59 0.14L19.59 0.14Q15.84 0 15.75-4.31L15.75-4.31L15.75-4.31Q15.94-8.63 19.78-8.81L19.78-8.81L19.78-8.81Q22.83-8.72 23.30-6.05ZM25.92-5.06L30.42-5.06L30.42-8.58L31.59-8.58L31.59 0L30.42 0L30.42-3.98L25.92-3.98L25.92 0L24.75 0L24.75-8.58L25.92-8.58L25.92-5.06ZM34.78-8.58L39.09-1.64L39.09-8.58L40.22-8.58L40.22 0L38.91 0L34.55-6.94L34.50-6.94L34.50 0L33.38 0L33.38-8.58L34.78-8.58ZM48.80-4.27L48.80-4.27L48.80-4.27Q48.61-7.64 45.80-7.83L45.80-7.83L45.80-7.83Q42.94-7.69 42.80-4.27L42.80-4.27L42.80-4.27Q42.94-0.94 45.80-0.80L45.80-0.80L45.80-0.80Q48.61-0.98 48.80-4.27ZM49.97-4.27L49.97-4.27L49.97-4.27Q49.69 0 45.80 0.14L45.80 0.14L45.80 0.14Q41.86 0 41.58-4.27L41.58-4.27L41.58-4.27Q41.81-8.72 45.80-8.81L45.80-8.81L45.80-8.81Q49.69-8.67 49.97-4.27ZM51.33-8.58L52.50-8.58L52.50-1.03L56.86-1.03L56.86 0L51.33 0L51.33-8.58ZM64.78-4.27L64.78-4.27L64.78-4.27Q64.59-7.64 61.78-7.83L61.78-7.83L61.78-7.83Q58.92-7.69 58.78-4.27L58.78-4.27L58.78-4.27Q58.92-0.94 61.78-0.80L61.78-0.80L61.78-0.80Q64.59-0.98 64.78-4.27ZM65.95-4.27L65.95-4.27L65.95-4.27Q65.67 0 61.78 0.14L61.78 0.14L61.78 0.14Q57.84 0 57.56-4.27L57.56-4.27L57.56-4.27Q57.80-8.72 61.78-8.81L61.78-8.81L61.78-8.81Q65.67-8.67 65.95-4.27ZM73.73-3.61L71.11-3.61L71.11-4.59L74.86-4.59L74.86 0L74.11 0L73.83-1.08L73.83-1.08Q72.84 0.09 71.02 0.14L71.02 0.14L71.02 0.14Q69.28 0.14 68.34-0.75L68.34-0.75L68.34-0.75Q66.94-2.06 66.98-4.36L66.98-4.36L66.98-4.36Q67.31-8.63 71.06-8.81L71.06-8.81L71.06-8.81Q74.25-8.63 74.72-6L74.72-6L73.59-6L73.59-6Q73.13-7.78 71.02-7.83L71.02-7.83L71.02-7.83Q68.34-7.64 68.20-4.31L68.20-4.31L68.20-4.31Q68.20-0.75 71.06-0.75L71.06-0.75L71.06-0.75Q72.09-0.75 72.84-1.31L72.84-1.31L72.84-1.31Q73.78-2.06 73.73-3.61L73.73-3.61ZM83.58-8.58L80.34-3.47L80.34 0L79.17 0L79.17-3.47L75.94-8.58L77.30-8.58L79.73-4.45L82.22-8.58L83.58-8.58Z"></path>
                </g>
            </g>
        </g>
    </g>
</svg>